<?xml version="1.0" standalone="no"?>
<!DOCTYPE svg PUBLIC "-//W3C//DTD SVG 20010904//EN"
 "http://www.w3.org/TR/2001/REC-SVG-20010904/DTD/svg10.dtd">
<svg version="1.0" xmlns="http://www.w3.org/2000/svg"
 width="512.000000pt" height="512.000000pt" viewBox="0 0 512.000000 512.000000"
 preserveAspectRatio="xMidYMid meet">
<metadata>
Created by potrace 1.11, written by Peter Selinger 2001-2013
</metadata>
<g transform="translate(0.000000,512.000000) scale(0.100000,-0.100000)"
fill="#000000" stroke="none">
<path d="M2496 4028 c-178 -24 -330 -176 -356 -355 -5 -34 -4 -87 2 -129 l10
-72 -239 -323 -238 -324 -255 -5 c-254 -5 -255 -5 -312 -33 -72 -35 -149 -119
-180 -195 l-23 -57 0 -580 0 -580 23 -57 c40 -100 110 -170 210 -210 l57 -23
1365 0 1365 0 57 23 c100 40 170 110 210 210 l23 57 0 580 0 580 -24 60 c-33
83 -125 174 -204 203 -53 20 -76 22 -296 22 -234 0 -238 0 -258 23 -11 12
-120 159 -242 326 l-223 303 10 70 c43 287 -194 526 -482 486z m-175 -768
c136 -98 342 -98 479 1 35 26 45 29 55 17 28 -30 325 -440 325 -448 0 -6 -235
-10 -620 -10 -393 0 -620 4 -620 10 0 10 329 460 336 460 2 0 23 -13 45 -30z
m-569 -1031 c96 -24 127 -87 135 -278 9 -235 -18 -335 -104 -377 -30 -15 -66
-19 -172 -22 -148 -4 -203 6 -244 44 -55 51 -61 75 -65 259 -6 247 11 314 87
359 53 31 265 40 363 15z m683 -15 c63 -32 80 -76 80 -209 0 -196 -34 -225
-271 -233 l-144 -5 0 -108 0 -109 -65 0 -65 0 0 346 0 346 213 -4 c191 -3 216
-5 252 -24z m645 -29 l0 -55 -172 -2 -173 -3 0 -85 0 -85 163 -3 162 -2 0 -50
0 -50 -162 -2 -163 -3 0 -90 0 -90 173 -3 172 -2 0 -55 0 -55 -240 0 -240 0 0
345 0 345 240 0 240 0 0 -55z m465 -230 c80 -157 148 -285 150 -285 2 0 1 128
-2 285 l-6 285 66 0 67 0 0 -345 0 -345 -109 0 -110 0 -150 292 -149 292 5
-292 6 -292 -66 0 -67 0 0 345 0 345 109 0 110 0 146 -285z"/>
<path d="M1478 2115 c-38 -21 -48 -67 -48 -220 0 -214 13 -235 148 -235 103 0
145 16 161 60 6 19 11 99 11 191 0 152 -1 159 -24 186 -23 27 -29 28 -123 31
-73 2 -105 -2 -125 -13z"/>
<path d="M2108 2124 c-5 -4 -8 -58 -8 -121 l0 -113 120 0 c115 0 122 1 145 25
21 20 25 34 25 84 0 65 -14 106 -39 117 -24 10 -235 17 -243 8z"/>
</g>
</svg>
