<?xml version="1.0" encoding="utf-8"?>
<!-- Generator: Adobe Illustrator 16.0.4, SVG Export Plug-In . SVG Version: 6.00 Build 0)  -->
<!DOCTYPE svg PUBLIC "-//W3C//DTD SVG 1.1//EN" "http://www.w3.org/Graphics/SVG/1.1/DTD/svg11.dtd">
<svg version="1.1" id="Layer_1" xmlns="http://www.w3.org/2000/svg" xmlns:xlink="http://www.w3.org/1999/xlink" x="0px" y="0px"
	 width="50px" height="50px" viewBox="0 0 50 50" enable-background="new 0 0 50 50" xml:space="preserve">
<path d="M16.885,29.49c0.148,0.184,0.225,0.488,0.225,0.913v0.243v1.786c0,0.213-0.021,0.413-0.063,0.599
	c-0.043,0.186-0.096,0.328-0.162,0.424c-0.111,0.133-0.268,0.227-0.469,0.277c-0.203,0.053-0.502,0.082-0.896,0.092
	c-0.406-0.013-0.709-0.037-0.904-0.076c-0.195-0.039-0.346-0.137-0.451-0.293c-0.125-0.207-0.188-0.586-0.188-1.139V30.72
	c0-0.084-0.006-0.153-0.018-0.206c0.025-0.404,0.082-0.704,0.17-0.898c0.076-0.172,0.227-0.289,0.453-0.349
	c0.225-0.062,0.547-0.091,0.965-0.091c0.229,0,0.439,0.006,0.637,0.018C16.504,29.234,16.739,29.334,16.885,29.49z M22.875,29.303
	c-0.15-0.049-0.371-0.073-0.66-0.073h-1.67v2.351h1.635c0.479,0,0.779-0.06,0.904-0.18c0.121-0.098,0.193-0.205,0.217-0.32
	c0.023-0.115,0.041-0.322,0.053-0.621c0-0.426-0.047-0.725-0.141-0.898C23.139,29.438,23.028,29.354,22.875,29.303z M41.163,25.916
	v10c0,1.934-1.565,3.5-3.5,3.5H12.337c-1.934,0-3.5-1.566-3.5-3.5v-10c0-1.933,1.566-3.5,3.5-3.5h4.023l4.695-6.383
	c-0.133-0.406-0.223-0.832-0.223-1.283c0-2.301,1.867-4.167,4.168-4.167s4.166,1.866,4.166,4.167c0,0.451-0.09,0.876-0.223,1.283
	l4.695,6.383h4.022C39.596,22.417,41.163,23.982,41.163,25.916z M18.411,30.457c0-0.516-0.053-0.906-0.158-1.172
	c-0.107-0.268-0.195-0.438-0.266-0.515c-0.133-0.203-0.336-0.356-0.611-0.46c-0.273-0.104-0.563-0.17-0.867-0.197
	c-0.303-0.029-0.629-0.044-0.98-0.044c-0.369,0-0.697,0.013-0.986,0.037s-0.568,0.088-0.838,0.188
	c-0.271,0.101-0.479,0.252-0.625,0.457c-0.156,0.229-0.26,0.494-0.311,0.797c-0.051,0.304-0.076,0.652-0.076,1.041v1.841
	c0,0.921,0.172,1.552,0.512,1.894c0.221,0.24,0.508,0.398,0.857,0.473c0.352,0.074,0.783,0.111,1.297,0.111
	c0.42,0,0.781-0.012,1.08-0.035c0.301-0.022,0.592-0.086,0.875-0.189c0.283-0.104,0.502-0.262,0.656-0.475
	c0.141-0.203,0.25-0.416,0.326-0.639c0.076-0.222,0.115-0.535,0.115-0.941V30.457z M18.842,22.417h12.314l-3.373-4.586
	c-0.738,0.668-1.709,1.086-2.783,1.086c-1.076,0-2.045-0.418-2.785-1.086L18.842,22.417z M24.629,30.403
	c0-0.606-0.08-1.096-0.242-1.47c-0.178-0.342-0.457-0.562-0.832-0.661c-0.377-0.099-0.83-0.147-1.357-0.147h-2.943v6.729h1.291
	v-2.171h1.967c0.348,0,0.684-0.046,1.006-0.137c0.322-0.092,0.551-0.223,0.689-0.394C24.489,31.816,24.629,31.232,24.629,30.403z
	 M30.049,33.75h-3.348v-1.785h3.16v-1.049h-3.16v-1.688h3.33v-1.104H25.41v6.729h4.639V33.75z M37.307,28.125h-1.301l0.107,5.625
	h-0.034l-2.89-5.625h-2.146v6.729h1.304l-0.035-2.835l-0.072-2.791h0.053l2.854,5.625h2.162v-6.729H37.307z"/>
</svg>
